<?xml version="1.0" standalone="no"?>
<!DOCTYPE svg PUBLIC "-//W3C//DTD SVG 20010904//EN"
 "http://www.w3.org/TR/2001/REC-SVG-20010904/DTD/svg10.dtd">
<svg version="1.0" xmlns="http://www.w3.org/2000/svg"
 width="545.000000pt" height="545.000000pt" viewBox="0 0 545.000000 545.000000"
 preserveAspectRatio="xMidYMid meet">
<metadata>
Created by potrace 1.14, written by Peter Selinger 2001-2017
</metadata>
<g transform="translate(0.000000,545.000000) scale(0.100000,-0.100000)"
fill="#000000" stroke="none">
<path d="M2575 4940 c-83 -49 -156 -89 -162 -89 -7 -1 -13 -5 -13 -10 0 -5 -6
-11 -13 -13 -13 -3 -632 -357 -677 -387 -14 -9 -42 -25 -62 -36 -24 -12 -38
-27 -39 -40 -5 -127 2 -1270 8 -1276 4 -4 60 -37 123 -73 63 -36 122 -70 130
-75 12 -8 181 -105 255 -147 11 -6 61 -35 110 -64 50 -29 110 -64 135 -78 25
-14 62 -36 82 -49 21 -12 40 -23 44 -23 3 0 18 -8 32 -18 15 -11 52 -33 82
-49 30 -17 69 -38 86 -48 l30 -18 87 51 c48 29 90 52 93 52 2 0 23 12 47 27
23 14 141 83 262 153 121 69 281 162 355 205 74 43 155 89 180 103 25 14 56
33 70 42 l25 18 -2 633 c-1 349 -2 639 -2 645 -1 6 -11 16 -23 22 -25 12 -66
36 -223 127 -55 32 -140 81 -190 110 -305 176 -375 216 -515 298 -85 49 -157
91 -160 92 -3 2 -73 -37 -155 -85z"/>
<path d="M1486 2965 c-32 -19 -59 -35 -61 -35 -1 0 -96 -55 -211 -121 -115
-67 -218 -127 -229 -133 -20 -11 -349 -201 -383 -221 -9 -6 -52 -30 -95 -53
l-77 -43 0 -647 0 -647 158 -92 c548 -318 864 -500 908 -524 l51 -28 114 65
c342 197 666 385 759 439 58 34 132 77 165 95 33 18 64 36 69 41 7 6 13 1159
7 1280 -1 14 -58 51 -261 167 -19 11 -165 95 -325 187 -159 92 -303 175 -320
185 -16 9 -70 40 -119 69 -49 28 -90 51 -91 51 0 0 -27 -16 -59 -35z"/>
<path d="M3845 2966 c-33 -18 -244 -140 -470 -271 -446 -258 -443 -257 -527
-304 -47 -27 -58 -38 -59 -59 -5 -212 1 -1266 8 -1272 4 -4 35 -22 68 -40 33
-18 65 -36 70 -40 8 -6 360 -210 515 -298 19 -10 76 -43 125 -72 50 -29 108
-62 130 -75 138 -78 171 -98 182 -107 12 -10 125 53 876 487 l257 149 0 646
c0 604 -1 646 -17 656 -10 6 -166 97 -348 201 -181 105 -346 200 -365 212 -19
11 -42 24 -50 28 -8 4 -87 49 -174 100 -87 51 -159 93 -160 93 -1 0 -28 -16
-61 -34z"/>
</g>
</svg>
