<svg height="70" id="Layer_1" data-name="Layer 1" xmlns="http://www.w3.org/2000/svg" xmlns:xlink="http://www.w3.org/1999/xlink" viewBox="0 0 420 130"><defs><style>.cls-1,.cls-3{fill:none;}.cls-2{clip-path:url(#clip-path);}.cls-3{stroke-miterlimit:10;stroke:url(#linear-gradient);}.cls-4{fill-rule:evenodd;fill:url(#linear-gradient-2);}.cls-5{fill:#fff;}</style><clipPath id="clip-path"><rect class="cls-1" width="420" height="130"/></clipPath><linearGradient id="linear-gradient" x1="129.34" y1="65" x2="130.34" y2="65" gradientUnits="userSpaceOnUse"><stop offset="0.02" stop-color="#673090"/><stop offset="0.98" stop-color="#272361"/></linearGradient><linearGradient id="linear-gradient-2" x1="-742.14" y1="600.59" x2="-741.33" y2="601.48" gradientTransform="matrix(110.16, 0, 0, -110.49, 81769.18, 66491.12)" xlink:href="#linear-gradient"/></defs><g class="cls-2"><line class="cls-3" x1="129.84" y1="10" x2="129.84" y2="120"/><path class="cls-4" d="M9.84,105V74.11l13.39-7.73,13.39-7.73L50,66.38l13.38,7.73V105L50,112.76l-13.39,7.73-13.39-7.73Zm56.61,0V74.11l13.39-7.73,13.38-7.73,13.39,7.73L120,74.11V105l-13.39,7.73-13.39,7.73-13.38-7.73ZM38.15,56.38V25.46l13.39-7.73L64.93,10l13.38,7.73L91.7,25.46V56.38L78.31,64.11,64.93,71.84,51.54,64.11Z"/><path class="cls-5" d="M94.83,101.2a.6.6,0,0,0,0-1.2H92.1a.6.6,0,0,0,0,1.2Z"/><path class="cls-5" d="M111.26,74.85h-5l.83-.84a1,1,0,0,0,0-1.42l-1.36-1.37a1,1,0,0,0-1.43,0l-.85.85a7.35,7.35,0,0,0-1.69-.7v-1.2a1,1,0,0,0-1-1H98.79a1,1,0,0,0-1,1v1.2a7.62,7.62,0,0,0-1.7.7l-.85-.85a1,1,0,0,0-1.42,0l-1.37,1.37a1,1,0,0,0,0,1.42l.84.84H75.67a2.63,2.63,0,0,0-2.62,2.62v23.68a2.63,2.63,0,0,0,2.62,2.62h5.55a.6.6,0,1,0,0-1.2H75.67a1.43,1.43,0,0,1-1.42-1.42V98.63h38.43v2.52a1.43,1.43,0,0,1-1.42,1.42H84.07a.6.6,0,0,0,0,1.2H89a31.74,31.74,0,0,1-.48,5H86.42a.6.6,0,1,0,0,1.2h14.09a.6.6,0,0,0,0-1.2H98.43a31.74,31.74,0,0,1-.49-5h13.32a2.63,2.63,0,0,0,2.62-2.62V77.47a2.63,2.63,0,0,0-2.62-2.62ZM89.72,108.78a34.06,34.06,0,0,0,.46-5h6.57a34.06,34.06,0,0,0,.46,5Zm4.53-34.66-.82-.82,1.1-1.1.82.82a1,1,0,0,0,1.23.15,6.53,6.53,0,0,1,1.64-.68,1,1,0,0,0,.77-1V70.36h1.55v1.15a1,1,0,0,0,.76,1,6.6,6.6,0,0,1,1.65.68,1,1,0,0,0,1.23-.15l.81-.82,1.1,1.1-.81.82a1,1,0,0,0-.16,1.23,6.21,6.21,0,0,1,.69,1.64,1,1,0,0,0,1,.77h1.16v1.55h-1.16a1,1,0,0,0-1,.76,6.14,6.14,0,0,1-.69,1.65,1,1,0,0,0,.16,1.23l.81.82L105,84.86l-.81-.81A1,1,0,0,0,103,83.9a6.6,6.6,0,0,1-1.65.68,1,1,0,0,0-.76,1v1.16H99V85.55a1,1,0,0,0-.77-1,6.08,6.08,0,0,1-1.64-.69,1,1,0,0,0-1.23.16l-.82.81-1.1-1.09.82-.82a1,1,0,0,0,.15-1.23,6.45,6.45,0,0,1-.68-1.65,1,1,0,0,0-1-.76H91.59V77.76h1.15a1,1,0,0,0,1-.77,6.53,6.53,0,0,1,.68-1.64,1,1,0,0,0-.15-1.23Zm-18.7,5V97.43h-1.3v-20a1.43,1.43,0,0,1,1.42-1.42H92.76a5,5,0,0,0-.16.51H91.4a1,1,0,0,0-1,1v0H77a1.48,1.48,0,0,0-1.48,1.48Zm34.63,18.35H76.74V79.08A.29.29,0,0,1,77,78.8H90.39v.7a1,1,0,0,0,1,1h1.2a7.62,7.62,0,0,0,.7,1.7l-.85.84a1,1,0,0,0,0,1.43l1.37,1.37a1,1,0,0,0,1.42,0l.85-.85a7.62,7.62,0,0,0,1.7.7v1.2a1,1,0,0,0,1,1h1.94a1,1,0,0,0,1-1V85.7a7.35,7.35,0,0,0,1.69-.7l.85.85a1,1,0,0,0,1.43,0l1.36-1.37a1,1,0,0,0,0-1.43l-.84-.84a7.62,7.62,0,0,0,.7-1.7h1.2a1,1,0,0,0,1-1v-.7h.76a.28.28,0,0,1,.28.28V97.43Zm2.5,0h-1.3V79.08a1.48,1.48,0,0,0-1.48-1.48h-.76v0a1,1,0,0,0-1-1h-1.2c-.05-.17-.1-.34-.16-.51h4.49a1.43,1.43,0,0,1,1.42,1.42Z"/><path class="cls-5" d="M99.76,83.18a4.65,4.65,0,0,0,0-9.29,4.53,4.53,0,0,0-1.27.18.6.6,0,1,0,.33,1.15,3.68,3.68,0,0,1,.94-.13,3.45,3.45,0,1,1-3.44,3.44,3.37,3.37,0,0,1,.59-1.92.6.6,0,0,0-.16-.83.59.59,0,0,0-.83.16,4.6,4.6,0,0,0-.8,2.59,4.65,4.65,0,0,0,4.64,4.65Z"/><path class="cls-5" d="M102.18,78.53A2.42,2.42,0,1,0,99.76,81a2.42,2.42,0,0,0,2.42-2.42Zm-3.63,0a1.22,1.22,0,1,1,1.21,1.22,1.21,1.21,0,0,1-1.21-1.22Z"/><path class="cls-5" d="M91.68,87h-.82a5.17,5.17,0,0,0-.47-1.14l.58-.57a.93.93,0,0,0,.27-.65A.91.91,0,0,0,91,84l-1-1.05a.91.91,0,0,0-1.29,0l-.57.57a6.35,6.35,0,0,0-1.14-.47v-.81a.91.91,0,0,0-.91-.91H84.53a.91.91,0,0,0-.91.91v.81a6.67,6.67,0,0,0-1.14.47L81.91,83a.91.91,0,0,0-1.29,0L79.57,84a.92.92,0,0,0,0,1.29l.58.57A5.17,5.17,0,0,0,79.68,87h-.82A.91.91,0,0,0,78,88v1.48a.91.91,0,0,0,.91.91h.82a5.29,5.29,0,0,0,.47,1.13l-.58.58a.92.92,0,0,0,0,1.29l1.05,1a.93.93,0,0,0,1.29,0l.57-.58a5.37,5.37,0,0,0,1.14.47v.82a.91.91,0,0,0,.91.91H86a.91.91,0,0,0,.91-.91v-.82a5.17,5.17,0,0,0,1.14-.47l.57.58a.92.92,0,0,0,.65.26.9.9,0,0,0,.64-.26l1-1a.91.91,0,0,0,0-1.29l-.58-.58a5.29,5.29,0,0,0,.47-1.13h.82a.91.91,0,0,0,.91-.91V88a.91.91,0,0,0-.91-.91Zm-.29,2.1h-.74a.93.93,0,0,0-.89.69,4.82,4.82,0,0,1-.5,1.22.92.92,0,0,0,.13,1.12l.53.52-.64.65-.53-.53a.91.91,0,0,0-1.11-.14,4.51,4.51,0,0,1-1.22.51.91.91,0,0,0-.69.88v.75h-.91v-.75a.92.92,0,0,0-.7-.88,4.79,4.79,0,0,1-1.22-.51.91.91,0,0,0-1.11.14l-.53.53-.64-.65.53-.52a.94.94,0,0,0,.14-1.12,4.51,4.51,0,0,1-.51-1.22.92.92,0,0,0-.89-.69h-.74v-.91h.74a.91.91,0,0,0,.89-.69,4.51,4.51,0,0,1,.51-1.22.92.92,0,0,0-.14-1.11l-.53-.53.64-.64.53.53a.91.91,0,0,0,1.11.13,4.79,4.79,0,0,1,1.22-.51.91.91,0,0,0,.7-.88v-.74h.91v.74a.9.9,0,0,0,.69.88,4.79,4.79,0,0,1,1.22.51.91.91,0,0,0,1.11-.13l.53-.53.64.64-.53.53a.91.91,0,0,0-.13,1.11,4.82,4.82,0,0,1,.5,1.22.92.92,0,0,0,.89.69h.74v.91Z"/><path class="cls-5" d="M85.27,85.52a3.17,3.17,0,1,0,3.17,3.17,3.17,3.17,0,0,0-3.17-3.17Zm0,5.14a2,2,0,1,1,2-2A2,2,0,0,1,85.27,90.66Z"/><path class="cls-5" d="M44.72,88H38a.79.79,0,1,1,0-1.57h6.69a.79.79,0,1,1,0,1.57Z"/><path class="cls-5" d="M36.06,86.06a.8.8,0,0,1-.79-.79V81.73a.79.79,0,0,1,1.58,0v3.54A.79.79,0,0,1,36.06,86.06Z"/><path class="cls-5" d="M34.09,88H27.4a.79.79,0,1,1,0-1.57h6.69a.79.79,0,1,1,0,1.57Z"/><path class="cls-5" d="M36.06,89.93a2.69,2.69,0,1,1,2.76-2.69A2.64,2.64,0,0,1,36.06,89.93Zm0-3.81a1.12,1.12,0,1,0,1.18,1.12A1.11,1.11,0,0,0,36.06,86.12Z"/><path class="cls-5" d="M46.29,89.6a.78.78,0,0,1-.78-.79.8.8,0,0,0-.79-.79.79.79,0,1,1,0-1.57,2.36,2.36,0,0,1,2.36,2.36A.79.79,0,0,1,46.29,89.6Z"/><path class="cls-5" d="M46.29,93.54a.79.79,0,0,1-.78-.79V88.81a.79.79,0,1,1,1.57,0v3.94A.79.79,0,0,1,46.29,93.54Z"/><path class="cls-5" d="M25.83,89.6a.79.79,0,0,1-.79-.79,2.36,2.36,0,0,1,2.36-2.36.79.79,0,1,1,0,1.57.8.8,0,0,0-.79.79A.78.78,0,0,1,25.83,89.6Z"/><path class="cls-5" d="M25.83,93.54a.79.79,0,0,1-.79-.79V88.81a.79.79,0,1,1,1.57,0v3.94A.79.79,0,0,1,25.83,93.54Z"/><path class="cls-5" d="M40.78,82.51H31.34a.79.79,0,1,1,0-1.57h9.44a.79.79,0,1,1,0,1.57Z"/><path class="cls-5" d="M33.7,82.51a.78.78,0,0,1-.79-.78V79.36a.79.79,0,0,1,1.58,0v2.37A.79.79,0,0,1,33.7,82.51Z"/><path class="cls-5" d="M38.42,82.51a.79.79,0,0,1-.79-.78V79.36a.79.79,0,0,1,1.58,0v2.37A.78.78,0,0,1,38.42,82.51Z"/><path class="cls-5" d="M43.15,80.15a.79.79,0,1,1,0-1.57.79.79,0,0,0,.78-.79.79.79,0,0,1,1.58,0A2.36,2.36,0,0,1,43.15,80.15Z"/><path class="cls-5" d="M44.72,70.71a.79.79,0,0,1-.79-.79.78.78,0,0,0-.78-.79.79.79,0,1,1,0-1.57,2.36,2.36,0,0,1,2.36,2.36A.79.79,0,0,1,44.72,70.71Z"/><path class="cls-5" d="M27.4,70.71a.8.8,0,0,1-.79-.79A2.37,2.37,0,0,1,29,67.56a.79.79,0,0,1,0,1.57.79.79,0,0,0-.79.79A.79.79,0,0,1,27.4,70.71Z"/><path class="cls-5" d="M29,80.15a2.37,2.37,0,0,1-2.37-2.36.79.79,0,1,1,1.58,0,.79.79,0,0,0,.79.79.79.79,0,0,1,0,1.57Z"/><path class="cls-5" d="M18.74,104.56a2.37,2.37,0,0,1-2.36-2.37.79.79,0,0,1,1.57,0,.79.79,0,0,0,.79.79.79.79,0,0,1,0,1.58Z"/><path class="cls-5" d="M17.17,95.11a.79.79,0,0,1-.79-.79A2.36,2.36,0,0,1,18.74,92a.79.79,0,0,1,0,1.58.79.79,0,0,0-.79.78A.78.78,0,0,1,17.17,95.11Z"/><path class="cls-5" d="M34.49,95.11a.79.79,0,0,1-.79-.79.78.78,0,0,0-.79-.78.79.79,0,0,1,0-1.58,2.36,2.36,0,0,1,2.36,2.36A.78.78,0,0,1,34.49,95.11Z"/><path class="cls-5" d="M32.91,104.56a.79.79,0,1,1,0-1.58.79.79,0,0,0,.79-.79.79.79,0,0,1,1.57,0A2.37,2.37,0,0,1,32.91,104.56Z"/><path class="cls-5" d="M23.47,106.92a.79.79,0,0,1-.79-.79v-2.36a.79.79,0,1,1,1.57,0v2.36A.78.78,0,0,1,23.47,106.92Z"/><path class="cls-5" d="M30.55,106.92H21.1a.79.79,0,0,1,0-1.58h9.45a.79.79,0,1,1,0,1.58Z"/><path class="cls-5" d="M51,106.92H41.57a.79.79,0,1,1,0-1.58H51a.79.79,0,1,1,0,1.58Z"/><path class="cls-5" d="M48.66,106.92a.79.79,0,0,1-.79-.79v-2.36a.79.79,0,1,1,1.57,0v2.36A.78.78,0,0,1,48.66,106.92Z"/><path class="cls-5" d="M28.19,106.92a.79.79,0,0,1-.79-.79v-2.36a.79.79,0,0,1,1.58,0v2.36A.79.79,0,0,1,28.19,106.92Z"/><path class="cls-5" d="M39.21,104.56a2.37,2.37,0,0,1-2.36-2.37.79.79,0,0,1,1.57,0,.79.79,0,0,0,.79.79.79.79,0,1,1,0,1.58Z"/><path class="cls-5" d="M37.63,95.11a.78.78,0,0,1-.78-.79A2.36,2.36,0,0,1,39.21,92a.79.79,0,0,1,0,1.58.79.79,0,0,0-.79.78A.79.79,0,0,1,37.63,95.11Z"/><path class="cls-5" d="M55,95.11a.79.79,0,0,1-.79-.79.79.79,0,0,0-.79-.78.79.79,0,1,1,0-1.58,2.36,2.36,0,0,1,2.36,2.36A.78.78,0,0,1,55,95.11Z"/><path class="cls-5" d="M53.38,104.56a.79.79,0,1,1,0-1.58.79.79,0,0,0,.79-.79.79.79,0,0,1,1.57,0A2.37,2.37,0,0,1,53.38,104.56Z"/><path class="cls-5" d="M44.72,78.58a.79.79,0,0,1-.79-.79V69.92a.79.79,0,0,1,1.58,0v7.87A.79.79,0,0,1,44.72,78.58Z"/><path class="cls-5" d="M43.15,69.13H29a.79.79,0,1,1,0-1.57H43.15a.79.79,0,0,1,0,1.57Z"/><path class="cls-5" d="M43.15,80.15H29a.79.79,0,1,1,0-1.57H43.15a.79.79,0,0,1,0,1.57Z"/><path class="cls-5" d="M27.4,78.58a.8.8,0,0,1-.79-.79V69.92a.79.79,0,1,1,1.58,0v7.87A.79.79,0,0,1,27.4,78.58Z"/><path class="cls-5" d="M17.17,103a.79.79,0,0,1-.79-.79V94.32a.79.79,0,0,1,1.57,0v7.87A.78.78,0,0,1,17.17,103Z"/><path class="cls-5" d="M32.91,104.56H18.74a.79.79,0,1,1,0-1.58H32.91a.79.79,0,0,1,0,1.58Z"/><path class="cls-5" d="M32.91,93.54H18.74a.79.79,0,0,1,0-1.58H32.91a.79.79,0,0,1,0,1.58Z"/><path class="cls-5" d="M34.49,103a.79.79,0,0,1-.79-.79V94.32a.79.79,0,0,1,1.57,0v7.87A.78.78,0,0,1,34.49,103Z"/><path class="cls-5" d="M37.63,103a.78.78,0,0,1-.78-.79V94.32a.79.79,0,0,1,1.57,0v7.87A.79.79,0,0,1,37.63,103Z"/><path class="cls-5" d="M53.38,93.54H39.21a.79.79,0,1,1,0-1.58H53.38a.79.79,0,0,1,0,1.58Z"/><path class="cls-5" d="M53.38,104.56H39.21a.79.79,0,1,1,0-1.58H53.38a.79.79,0,1,1,0,1.58Z"/><path class="cls-5" d="M55,103a.79.79,0,0,1-.79-.79V94.32a.79.79,0,0,1,1.57,0v7.87A.78.78,0,0,1,55,103Z"/><path class="cls-5" d="M81.72,25.47H48.12a3.58,3.58,0,0,0-3.58,3.58V51.2a3.58,3.58,0,0,0,3.58,3.58H60.18v4.54H58.39a1.2,1.2,0,1,0,0,2.39H71.46a1.2,1.2,0,0,0,0-2.39h-1.8V54.78H81.72A3.58,3.58,0,0,0,85.3,51.2V29.05A3.58,3.58,0,0,0,81.72,25.47ZM67.27,59.32h-4.7V54.78h4.7ZM82.91,51.2a1.19,1.19,0,0,1-1.19,1.2H48.12a1.2,1.2,0,0,1-1.19-1.2V49.39h36Zm0-4.2h-36V29.05a1.2,1.2,0,0,1,1.19-1.2h33.6a1.19,1.19,0,0,1,1.19,1.2Z"/><path class="cls-5" d="M58.78,40.28l-3.24-2.21,3.24-2.2a1.2,1.2,0,0,0-1.35-2l-4.68,3.2a1.19,1.19,0,0,0,0,2l4.68,3.19a1.13,1.13,0,0,0,.67.21,1.18,1.18,0,0,0,1-.52A1.2,1.2,0,0,0,58.78,40.28Z"/><path class="cls-5" d="M76.54,37.09l-4.68-3.2a1.2,1.2,0,1,0-1.34,2l3.23,2.2-3.23,2.21a1.19,1.19,0,0,0,.67,2.18,1.18,1.18,0,0,0,.67-.21l4.68-3.19a1.19,1.19,0,0,0,0-2Z"/><path class="cls-5" d="M67.63,32.77a1.2,1.2,0,0,0-1.63.45l-4.79,8.53a1.19,1.19,0,1,0,2.08,1.17l4.79-8.53A1.18,1.18,0,0,0,67.63,32.77Z"/><path class="cls-5" d="M135.13,90.34l17.22-47.19h9.83L179.4,90.34H168.23l-3.66-10.57H149.89L146.3,90.34Zm16.48-18.08h11.17l-5.52-16.68Zm28.58.6h0A18.91,18.91,0,0,1,181.46,66h0a17.16,17.16,0,0,1,3.65-5.78h0a17.34,17.34,0,0,1,5.88-4h0a20.33,20.33,0,0,1,7.94-1.47h0a19,19,0,0,1,10.17,2.56h0A16.38,16.38,0,0,1,215.28,64h0l-10.36,3.13h0a6.69,6.69,0,0,0-6-3.33h0a7.17,7.17,0,0,0-5.55,2.46h0a9.4,9.4,0,0,0-2.23,6.58h0a11.19,11.19,0,0,0,.6,3.76h0a8.62,8.62,0,0,0,1.66,2.89h0a7.53,7.53,0,0,0,2.49,1.86h0a7.16,7.16,0,0,0,3,.66h0a7.13,7.13,0,0,0,3.65-1h0A6.13,6.13,0,0,0,205,78.58h0l10.37,3.19h0a15.59,15.59,0,0,1-6.15,6.64h0A19.22,19.22,0,0,1,198.93,91h0a19.76,19.76,0,0,1-7.87-1.49h0a18.16,18.16,0,0,1-5.92-4h0a16.93,16.93,0,0,1-3.68-5.78h0A18.87,18.87,0,0,1,180.19,72.86ZM230,91h0a13.52,13.52,0,0,1-4.82-.83h0a11.16,11.16,0,0,1-3.82-2.32h0a11.26,11.26,0,0,1-2.53-3.52h0a10.52,10.52,0,0,1-.93-4.42h0a10.16,10.16,0,0,1,1.1-4.72h0a10.81,10.81,0,0,1,3.09-3.66h0a15.08,15.08,0,0,1,4.72-2.39h0a19.79,19.79,0,0,1,6.05-.86h0a24.62,24.62,0,0,1,4.25.36h0a13.79,13.79,0,0,1,3.59,1.1h0v-1.6h0q0-6-7-6h0a15.59,15.59,0,0,0-5.45,1h0A25.9,25.9,0,0,0,222.86,66h0l-3.12-6.65h0a28.24,28.24,0,0,1,7.17-3.39h0a27.25,27.25,0,0,1,7.91-1.13h0q7.92,0,12.23,3.73h0q4.32,3.72,4.32,10.89h0v9h0a3.7,3.7,0,0,0,.5,2.22h0a2.48,2.48,0,0,0,1.76.77h0v9h0a17.06,17.06,0,0,1-2.52.43h0c-.76.07-1.44.1-2.06.1h0a7.42,7.42,0,0,1-4.52-1.16h0a5.17,5.17,0,0,1-1.93-3.29h0l-.2-1.6h0a15.83,15.83,0,0,1-5.55,4.59h0A15.2,15.2,0,0,1,230,91Zm3.12-7.64h0a9.68,9.68,0,0,0,3.36-.6h0a7.8,7.8,0,0,0,2.69-1.59h0a3.3,3.3,0,0,0,1.53-2.53h0V75.32h0a17.62,17.62,0,0,0-3-.83h0a16.67,16.67,0,0,0-3-.3h0a8.19,8.19,0,0,0-4.82,1.33h0A4.06,4.06,0,0,0,228,79h0a3.94,3.94,0,0,0,1.46,3.15h0A5.6,5.6,0,0,0,233.16,83.36ZM273.57,91h0A15.86,15.86,0,0,1,267,89.64h0a15.34,15.34,0,0,1-5.22-3.82h0a18,18,0,0,1-3.42-5.75h0a20.44,20.44,0,0,1-1.23-7.21h0a21.8,21.8,0,0,1,1.13-7.11h0A17.27,17.27,0,0,1,261.41,60h0a15.09,15.09,0,0,1,4.88-3.82h0a13.89,13.89,0,0,1,6.22-1.4h0a12.89,12.89,0,0,1,6.61,1.73h0a11.89,11.89,0,0,1,4.55,4.65h0V41.82h10.64V78.38h0a3.71,3.71,0,0,0,.49,2.22h0a2.51,2.51,0,0,0,1.77.77h0v9h0a19.39,19.39,0,0,1-2.53.43h0c-.71.07-1.37.1-2,.1h0a8,8,0,0,1-4.52-1.16h0a4.53,4.53,0,0,1-2-3.36h0l-.2-1.79h0a11.87,11.87,0,0,1-5,4.85h0A14.83,14.83,0,0,1,273.57,91Zm2.86-9h0a7.75,7.75,0,0,0,4.22-1.29h0a8.37,8.37,0,0,0,3.09-3.56h0V69.87h0a9.66,9.66,0,0,0-3.22-4.35h0a7.57,7.57,0,0,0-4.62-1.7h0a6.57,6.57,0,0,0-3.16.77h0a8.49,8.49,0,0,0-2.49,2h0a9.11,9.11,0,0,0-1.63,2.93h0a10.78,10.78,0,0,0-.57,3.52h0a9.82,9.82,0,0,0,.64,3.59h0a8.8,8.8,0,0,0,1.72,2.86h0a7.52,7.52,0,0,0,2.66,1.86h0A8.53,8.53,0,0,0,276.43,82ZM336,90.34l-21.73-27v27h-10.9V43.15h8.51l22,27.72V43.15h10.9V90.34Zm33.17.66h0a20.69,20.69,0,0,1-7.88-1.42h0a17.58,17.58,0,0,1-5.91-3.89h0A16.68,16.68,0,0,1,351.73,80h0a18.38,18.38,0,0,1-1.26-6.75h0a20.09,20.09,0,0,1,1.26-7.14h0a17.43,17.43,0,0,1,3.65-5.89h0a17.07,17.07,0,0,1,5.89-4h0a20.26,20.26,0,0,1,7.94-1.47h0a20.07,20.07,0,0,1,7.91,1.47h0a17.41,17.41,0,0,1,5.85,4h0A16.84,16.84,0,0,1,386.59,66h0a19.19,19.19,0,0,1,1.23,6.84h0c0,.62,0,1.23-.07,1.83h0a11.74,11.74,0,0,1-.2,1.56H361.77a7.12,7.12,0,0,0,2.55,5.35h0a8.15,8.15,0,0,0,5.22,1.83h0A9.5,9.5,0,0,0,374,82.23h0a5.77,5.77,0,0,0,2.89-3h0l9,2.52h0a16.29,16.29,0,0,1-6.38,6.71h0A19.78,19.78,0,0,1,369.21,91Zm-7.64-21.4h15a8,8,0,0,0-2.39-5.25h0a7.21,7.21,0,0,0-5.11-1.92h0a7.12,7.12,0,0,0-5.16,2h0a8.09,8.09,0,0,0-2.35,5.21ZM412.94,80,415,88.48h0a41.66,41.66,0,0,1-5,1.73h0a20.82,20.82,0,0,1-5.68.79h0a13.76,13.76,0,0,1-3.75-.49h0a8.55,8.55,0,0,1-3.1-1.6h0A7.47,7.47,0,0,1,395.36,86h0a11,11,0,0,1-.76-4.32h0V63.49h-4.46v-8h4.46V44.35h10.63v11.1h7.11v8h-7.11V78h0a3.2,3.2,0,0,0,.86,2.5h0a3.2,3.2,0,0,0,2.2.76h0a8.1,8.1,0,0,0,2.46-.4h0a14.51,14.51,0,0,0,2.19-.86Z"/></g></svg>